<svg xmlns="http://www.w3.org/2000/svg" viewBox="0 0 1339 1390"><g fill="#fff"><path d="M1113.6 253.8c-2.4 3.3-42.2 49.9-104.2 132.1-21.4 28.3-47.8 58.3-70.8 87.8-75.8 96.9-155.1 188.7-184.1 198-63.8 20.4-27.1-46.1-51-55-7.6-2.9-77.3 40.7-106.7 57.3-6.7-8-14.2-14.7-22.4-20 73.2-68.1 152.3-139 159.7-139.5 8.2-.5 13.8 70.7 40.6 54.6 19.2-11.4 90-76.7 163.3-146.1l75.5-72c62.5-60.3 97.7-94.9 100-97.2M678.5 790c-5.6 4.7-32.8 30.3-68.1 64l-10.4 9.7c-81.1 77-188.7 186.5-191.3 189 2.6-3.7 118.5-165.5 202.3-269.9l17.2-21c34.8-42.2 61.2-70 66.9-65 19.5 17.2 1.8 77.1-16.6 93.1"/><path d="M1037.3 287.7c-7.2 6.1-9.6-7.6-5-22.5 8.6-28.2 36-52.6 36-52.6-17.6 27.8-11.8 59-31 75.1zm56.8-110.2c-42.8 15.8-89.8 88.9-98.5 161-.6 5-1 9.7-1.2 14.2l3.6-3.4 16.2-15.6 47.8-46.2c9.6-36.3 33.7-69.7 56-77.8 14-5.1 24 1 28.8 14.2-3.3-37-22.9-57.4-52.7-46.4M1134.5 285.4c-13.7 45.4-40.8 90.6-71.5 113-20.4 15-38.6 17.5-51.7 9l.7-1 1.1-1.4 13.2-17.3 36.7-49.2c8 8.3 20.9 7.7 35.5-3.3a125.8 125.8 0 0036-49.8"/><path d="M162.8 1377.5s-89.8-202 51-502.9C372.8 534.2 645 348.1 904.4 204.5 1115.2 87.8 1339 0 1339 0S950.5 125 507.3 339.6C64 554.2-182.7 1032 162.8 1377.6"/><path d="M612.5 746.8l-.2.1-11.5 14.2c-18.2-15.8-43.3-18.8-73.2-5.3-77.4 35-156 165-168.1 287-5 48.6 1.8 85.8 16.7 109.4 2.6 4.1 5.4 7.8 8.5 11 23.5 25 60.3 25.3 102.5-4.1 36.1-25.2 69.7-68 95.5-117.4l4.5-8.9c2.6-5 5-10.2 7.4-15.4a500.7 500.7 0 01-7 21.2c-43.6 128.8-122 251.7-208.8 313-88.9 62.9-163.6 46.3-197.4-33v-.2c-3.5-8-6.4-16.7-9-26-1.8-6.7-3.4-13.8-4.8-21-6-33-7.3-72.2-2.8-117.2 8.5-84.8 35.6-171.8 73.6-249.1l.2-.4c39.8-81.1 91.5-151.5 146.2-197.4a291.1 291.1 0 0136.7-26.9 223.4 223.4 0 0126-14c80.7-37 140.8-1.6 165 80.4"/></g></svg>